<mxfile host="app.diagrams.net" modified="2023-08-04T00:08:37.951Z" agent="Mozilla/5.0 (X11; Linux x86_64) AppleWebKit/537.36 (KHTML, like Gecko) Chrome/113.0.0.0 Safari/537.36" etag="QyUoL8i59fPIQ4y0M9HL" version="21.6.6" type="github">
  <diagram name="Data Integrity" id="pnki75XwlPRXs-gRyhnb">
    <mxGraphModel dx="1602" dy="841" grid="1" gridSize="10" guides="1" tooltips="1" connect="1" arrows="1" fold="1" page="1" pageScale="1" pageWidth="827" pageHeight="1169" math="0" shadow="0">
      <root>
        <mxCell id="0" />
        <mxCell id="1" parent="0" />
      </root>
    </mxGraphModel>
  </diagram>
</mxfile>
